<svg width="450" height="450" viewBox="0 0 450 450" fill="none" xmlns="http://www.w3.org/2000/svg">
<g clip-path="url(#clip0_1_8)">
<path d="M225 450C349.264 450 450 349.264 450 225C450 100.736 349.264 0 225 0C100.736 0 0 100.736 0 225C0 349.264 100.736 450 225 450Z" fill="#545BFE"/>
<mask id="mask0_1_8" style="mask-type:luminance" maskUnits="userSpaceOnUse" x="0" y="0" width="450" height="450">
<path d="M225 450C349.264 450 450 349.264 450 225C450 100.736 349.264 0 225 0C100.736 0 0 100.736 0 225C0 349.264 100.736 450 225 450Z" fill="#4FCDF9"/>
</mask>
<g mask="url(#mask0_1_8)">
<path d="M134 351C140.627 351 146 345.627 146 339C146 332.373 140.627 327 134 327H115C108.373 327 103 321.627 103 315C103 308.373 108.373 303 115 303H113C119.627 303 125 297.627 125 291C125 284.373 119.627 279 113 279H103C96.373 279 91 273.627 91 267C91 260.373 96.373 255 103 255C109.627 255 115 249.627 115 243C115 236.373 109.627 231 103 231C96.373 231 91 225.627 91 219C91 212.373 96.373 207 103 207H152C158.627 207 164 212.373 164 219C164 225.627 158.627 231 152 231H154V231.01C147.605 231.273 142.5 236.54 142.5 243C142.5 249.46 147.605 254.727 154 254.99V255H205C211.627 255 217 260.373 217 267C217 273.627 211.627 279 205 279H199V279.01C192.605 279.272 187.5 284.54 187.5 291C187.5 297.46 192.605 302.728 199 302.99V303C205.627 303 211 308.373 211 315C211 321.627 205.627 327 199 327H172V327.01C165.605 327.272 160.5 332.54 160.5 339C160.5 345.46 165.605 350.728 172 350.99V351H168C174.627 351 180 356.373 180 363C180 369.627 174.627 375 168 375H139C132.373 375 127 369.627 127 363C127 356.373 132.373 351 139 351H134ZM49 183C55.627 183 61 188.373 61 195C61 201.627 55.627 207 49 207H14C7.373 207 2 201.627 2 195C2 188.373 7.373 183 14 183H49ZM98 159C104.627 159 110 164.373 110 171C110 177.627 104.627 183 98 183C91.373 183 86 177.627 86 171C86 164.373 91.373 159 98 159ZM176 15C182.627 15 188 20.373 188 27C188 33.627 182.627 39 176 39H175V39.01C168.605 39.273 163.5 44.54 163.5 51C163.5 57.46 168.605 62.727 175 62.99V63H182C188.627 63 194 68.373 194 75C194 81.627 188.627 87 182 87H113V87.01C106.605 87.273 101.5 92.54 101.5 99C101.5 105.46 106.605 110.728 113 110.99V111H118C124.627 111 130 116.373 130 123C130 129.627 124.627 135 118 135H-1C-7.627 135 -13 129.627 -13 123C-13 116.373 -7.627 111 -1 111H9C15.627 111 21 105.627 21 99C21 92.373 15.627 87 9 87H13C6.373 87 1 81.627 1 75C1 68.373 6.373 63 13 63H19C25.627 63 31 57.627 31 51C31 44.373 25.627 39 19 39H-29C-35.627 39 -41 33.627 -41 27C-41 20.373 -35.627 15 -29 15H176Z" fill="#4FCDF9"/>
</g>
<mask id="mask1_1_8" style="mask-type:luminance" maskUnits="userSpaceOnUse" x="0" y="0" width="450" height="450">
<path d="M225 450C349.264 450 450 349.264 450 225C450 100.736 349.264 0 225 0C100.736 0 0 100.736 0 225C0 349.264 100.736 450 225 450Z" fill="#4FCDF9"/>
</mask>
<g mask="url(#mask1_1_8)">
<path d="M390 327C396.627 327 402 321.627 402 315C402 308.373 396.627 303 390 303C383.373 303 378 297.627 378 291C378 284.373 383.373 279 390 279H387C393.627 279 399 273.627 399 267C399 260.373 393.627 255 387 255H342C335.373 255 330 249.627 330 243C330 236.373 335.373 231 342 231C348.627 231 354 225.627 354 219C354 212.373 348.627 207 342 207H308C301.373 207 296 201.627 296 195C296 188.373 301.373 183 308 183H334C340.627 183 346 177.627 346 171C346 164.373 340.627 159 334 159C327.373 159 322 153.627 322 147C322 140.373 327.373 135 334 135H390C396.627 135 402 140.373 402 147C402 153.627 396.627 159 390 159L389.999 159.01C383.604 159.273 378.5 164.54 378.5 171C378.5 177.46 383.604 182.727 389.999 182.99L390 183H481C487.627 183 493 188.373 493 195C493 201.627 487.627 207 481 207H461V207.01C454.605 207.273 449.5 212.54 449.5 219C449.5 225.46 454.605 230.727 461 230.99V231H471C477.627 231 483 236.373 483 243C483 249.627 477.627 255 471 255H456L455.999 255.01C449.604 255.273 444.5 260.54 444.5 267C444.5 273.46 449.604 278.727 455.999 278.99L456 279H454C460.627 279 466 284.373 466 291C466 297.627 460.627 303 454 303H434V303.01C427.605 303.272 422.5 308.54 422.5 315C422.5 321.46 427.605 326.728 434 326.99V327H430C436.627 327 442 332.373 442 339C442 345.627 436.627 351 430 351H394C387.373 351 382 345.627 382 339C382 332.373 387.373 327 394 327H390ZM480 303C486.627 303 492 308.373 492 315C492 321.627 486.627 327 480 327C473.373 327 468 321.627 468 315C468 308.373 473.373 303 480 303ZM462 135C468.627 135 474 140.373 474 147C474 153.627 468.627 159 462 159H448C441.373 159 436 153.627 436 147C436 140.373 441.373 135 448 135H462ZM660 63C666.627 63 672 68.373 672 75C672 81.627 666.627 87 660 87H653V87.01C646.605 87.273 641.5 92.54 641.5 99C641.5 105.46 646.605 110.728 653 110.99V111H669C675.627 111 681 116.373 681 123C681 129.627 675.627 135 669 135H495C488.373 135 483 129.627 483 123C483 116.373 488.373 111 495 111H490C496.627 111 502 105.627 502 99C502 92.373 496.627 87 490 87H449C442.373 87 437 81.627 437 75C437 68.373 442.373 63 449 63H660ZM359 87C365.627 87 371 92.373 371 99C371 105.627 365.627 111 359 111H335C328.373 111 323 105.627 323 99C323 92.373 328.373 87 335 87H359ZM397 87C403.627 87 409 92.373 409 99C409 105.627 403.627 111 397 111H394C387.373 111 382 105.627 382 99C382 92.373 387.373 87 394 87H397ZM410 39C416.627 39 422 44.373 422 51C422 57.627 416.627 63 410 63H386C379.373 63 374 57.627 374 51C374 44.373 379.373 39 386 39H410Z" fill="#4FCDF9"/>
</g>
<mask id="mask2_1_8" style="mask-type:luminance" maskUnits="userSpaceOnUse" x="0" y="0" width="450" height="450">
<path d="M225 450C349.264 450 450 349.264 450 225C450 100.736 349.264 0 225 0C100.736 0 0 100.736 0 225C0 349.264 100.736 450 225 450Z" fill="white"/>
</mask>
<g mask="url(#mask2_1_8)">
<path d="M413 111C419.627 111 425 116.373 425 123C425 129.627 419.627 135 413 135H351C344.373 135 339 129.627 339 123C339 116.373 344.373 111 351 111H413ZM307 51C307 44.373 301.627 39 295 39H175C168.373 39 163 33.627 163 27C163 20.373 168.373 15 175 15H224C230.627 15 236 9.627 236 3C236 -3.627 230.627 -9 224 -9H208C201.373 -9 196 -14.373 196 -21C196 -27.627 201.373 -33 208 -33H270C276.627 -33 282 -27.627 282 -21C282 -14.373 276.627 -9 270 -9H272V-8.99C265.605 -8.728 260.5 -3.46 260.5 3C260.5 9.46 265.605 14.728 272 14.99V15H432C438.627 15 444 20.373 444 27C444 33.627 438.627 39 432 39H364L363.999 39.01C357.604 39.273 352.5 44.54 352.5 51C352.5 57.46 357.604 62.727 364 62.99V63H367C373.627 63 379 68.373 379 75C379 81.627 373.627 87 367 87H291C284.373 87 279 81.627 279 75C279 68.373 284.373 63 291 63H295C301.627 63 307 57.627 307 51ZM435 63C441.627 63 447 68.373 447 75C447 81.627 441.627 87 435 87H415C408.373 87 403 81.627 403 75C403 68.373 408.373 63 415 63H435ZM243 63C249.627 63 255 68.373 255 75C255 81.627 249.627 87 243 87H223C216.373 87 211 81.627 211 75C211 68.373 216.373 63 223 63H243ZM474 -33C480.627 -33 486 -27.627 486 -21C486 -14.373 480.627 -9 474 -9H318C311.373 -9 306 -14.373 306 -21C306 -27.627 311.373 -33 318 -33H474Z" fill="white"/>
</g>
<mask id="mask3_1_8" style="mask-type:luminance" maskUnits="userSpaceOnUse" x="0" y="0" width="450" height="450">
<path d="M225 450C349.264 450 450 349.264 450 225C450 100.736 349.264 0 225 0C100.736 0 0 100.736 0 225C0 349.264 100.736 450 225 450Z" fill="white"/>
</mask>
<g mask="url(#mask3_1_8)">
<path d="M97 363C97 356.373 91.627 351 85 351H17C10.373 351 5 345.627 5 339C5 332.373 10.373 327 17 327H118C124.627 327 130 321.627 130 315C130 308.373 124.627 303 118 303H95C88.373 303 83 297.627 83 291C83 284.373 88.373 279 95 279H213C219.627 279 225 284.373 225 291C225 297.627 219.627 303 213 303H166V303.01C159.605 303.272 154.5 308.54 154.5 315C154.5 321.46 159.605 326.728 166 326.99V327H180C186.627 327 192 332.373 192 339C192 345.627 186.627 351 180 351H154L153.999 351.01C147.604 351.273 142.5 356.54 142.5 363C142.5 369.46 147.604 374.727 153.999 374.99L154 375H157C163.627 375 169 380.373 169 387C169 393.627 163.627 399 157 399H81C74.373 399 69 393.627 69 387C69 380.373 74.373 375 81 375H85C91.627 375 97 369.627 97 363ZM248 327C254.627 327 260 332.373 260 339C260 345.627 254.627 351 248 351H228C221.373 351 216 345.627 216 339C216 332.373 221.373 327 228 327H248Z" fill="white"/>
</g>
<mask id="mask4_1_8" style="mask-type:luminance" maskUnits="userSpaceOnUse" x="0" y="0" width="450" height="450">
<path d="M225 450C349.264 450 450 349.264 450 225C450 100.736 349.264 0 225 0C100.736 0 0 100.736 0 225C0 349.264 100.736 450 225 450Z" fill="white"/>
</mask>
<g mask="url(#mask4_1_8)">
<path d="M349 459C349 452.373 343.627 447 337 447H269C262.373 447 257 441.627 257 435C257 428.373 262.373 423 269 423H370C376.627 423 382 417.627 382 411C382 404.373 376.627 399 370 399H347C340.373 399 335 393.627 335 387C335 380.373 340.373 375 347 375H465C471.627 375 477 380.373 477 387C477 393.627 471.627 399 465 399H418V399.01C411.605 399.272 406.5 404.54 406.5 411C406.5 417.46 411.605 422.728 418 422.99V423H432C438.627 423 444 428.373 444 435C444 441.627 438.627 447 432 447H406L405.999 447.01C399.604 447.273 394.5 452.54 394.5 459C394.5 465.46 399.604 470.727 405.999 470.99L406 471H409C415.627 471 421 476.373 421 483C421 489.627 415.627 495 409 495H333C326.373 495 321 489.627 321 483C321 476.373 326.373 471 333 471H337C343.627 471 349 465.627 349 459ZM500 423C506.627 423 512 428.373 512 435C512 441.627 506.627 447 500 447H480C473.373 447 468 441.627 468 435C468 428.373 473.373 423 480 423H500Z" fill="white"/>
</g>
<mask id="mask5_1_8" style="mask-type:luminance" maskUnits="userSpaceOnUse" x="0" y="0" width="450" height="450">
<g opacity="0.078">
<path d="M225 450C349.264 450 450 349.264 450 225C450 100.736 349.264 0 225 0C100.736 0 0 100.736 0 225C0 349.264 100.736 450 225 450Z" fill="black"/>
</g>
</mask>
<g mask="url(#mask5_1_8)">
<path opacity="0.078" d="M225.484 -25H475.968V475H225.484V-25Z" fill="black"/>
</g>
</g>
<defs>
<clipPath id="clip0_1_8">
<rect width="450" height="450" fill="white"/>
</clipPath>
</defs>
</svg>
